<?xml version="1.0" encoding="UTF-8"?>
<svg width="815px" height="305px" viewBox="0 0 815 305" version="1.1" xmlns="http://www.w3.org/2000/svg" xmlns:xlink="http://www.w3.org/1999/xlink">
    <!-- Generator: Sketch 55.2 (78181) - https://sketchapp.com -->
    <title>logo-rtl</title>
    <desc>Created with Sketch.</desc>
    <defs>
        <polygon id="path-1" points="0 0.529 304.471 0.529 304.471 304.94 0 304.94"></polygon>
    </defs>
    <g id="logo-rtl" stroke="none" stroke-width="1" fill="none" fill-rule="evenodd">
        <g id="Group-4">
            <mask id="mask-2" fill="white">
                <use xlink:href="#path-1"></use>
            </mask>
            <g id="Clip-2"></g>
            <path d="M233.125,126.889 L217.528,126.889 L217.528,178.803 L233.239,178.803 C248.153,178.803 252.934,165.483 252.934,152.846 C252.934,136.68 246.787,126.889 233.125,126.889" id="Fill-1" fill="#D8232A" mask="url(#mask-2)"></path>
            <path d="M232.215,193.83 L209.787,193.83 C203.184,193.83 198.858,191.212 198.858,182.901 L198.858,122.79 C198.858,114.48 203.184,111.862 209.787,111.862 L232.556,111.862 C252.934,111.862 271.605,120.742 271.605,152.846 C271.605,178.803 257.147,193.83 232.215,193.83 Z M176.995,193.83 L132.254,193.83 C125.651,193.83 121.325,191.212 121.325,182.901 L121.325,122.79 C121.325,114.48 125.651,111.862 132.254,111.862 L176.085,111.862 C181.549,111.862 185.534,113.456 185.534,119.375 C185.534,125.295 181.549,126.889 176.085,126.889 L139.995,126.889 L139.995,144.649 L171.645,144.649 C176.54,144.649 180.411,146.015 180.411,151.821 C180.411,157.627 176.54,158.994 171.645,158.994 L139.995,158.994 L139.995,178.803 L176.995,178.803 C182.46,178.803 186.445,180.396 186.445,186.316 C186.445,192.236 182.46,193.83 176.995,193.83 Z M103.788,171.175 C103.788,180.624 106.293,184.153 106.293,188.024 C106.293,192.35 101.853,195.31 97.527,195.31 C87.281,195.31 86.484,185.405 86.484,182.104 C86.484,167.76 83.866,161.954 73.619,161.954 L55.177,161.954 L55.177,185.975 C55.177,191.553 51.533,195.31 45.841,195.31 C40.149,195.31 36.506,191.553 36.506,185.975 L36.506,122.79 C36.506,114.48 40.832,111.862 47.435,111.862 L78.515,111.862 C100.715,111.862 106.635,124.043 106.635,134.631 C106.635,143.511 101.398,152.277 92.518,154.326 L92.518,154.554 C102.081,155.92 103.788,162.865 103.788,171.175 Z M152.236,0.529 C68.158,0.529 0,68.687 0,152.765 C0,236.843 68.158,305.001 152.236,305.001 C236.313,305.001 304.471,236.843 304.471,152.765 C304.471,68.687 236.313,0.529 152.236,0.529 L152.236,0.529 Z" id="Fill-3" fill="#D8232A" mask="url(#mask-2)"></path>
        </g>
        <path d="M74.416,126.206 L55.177,126.206 L55.177,148.292 L73.847,148.292 C80.906,148.292 87.964,146.471 87.964,137.249 C87.964,128.483 82.613,126.206 74.416,126.206" id="Fill-5" fill="#D8232A"></path>
        <path d="M350.028,127.572 L332.382,127.572 C327.031,127.572 322.705,124.839 322.705,119.716 C322.705,114.593 327.031,111.861 332.382,111.861 L386.345,111.861 C391.696,111.861 396.021,114.593 396.021,119.716 C396.021,124.839 391.696,127.572 386.345,127.572 L368.699,127.572 L368.699,185.975 C368.699,191.553 365.055,195.31 359.363,195.31 C353.671,195.31 350.028,191.553 350.028,185.975 L350.028,127.572" id="Fill-6" fill="#1C5383"></path>
        <path d="M406.499,122.79 C406.499,114.479 410.825,111.861 417.429,111.861 L461.259,111.861 C466.723,111.861 470.708,113.455 470.708,119.375 C470.708,125.295 466.723,126.889 461.259,126.889 L425.17,126.889 L425.17,144.648 L456.819,144.648 C461.715,144.648 465.585,146.015 465.585,151.821 C465.585,157.627 461.715,158.993 456.819,158.993 L425.17,158.993 L425.17,178.802 L462.17,178.802 C467.635,178.802 471.619,180.396 471.619,186.316 C471.619,192.236 467.635,193.83 462.17,193.83 L417.429,193.83 C410.825,193.83 406.499,191.212 406.499,182.901 L406.499,122.79" id="Fill-7" fill="#1C5383"></path>
        <path d="M521.487,109.926 C542.89,109.926 554.616,123.359 554.616,131.329 C554.616,136.565 551.77,139.753 546.192,139.753 C535.377,139.753 538.564,124.953 521.487,124.953 C509.762,124.953 500.084,135.085 500.084,152.846 C500.084,167.759 506.005,180.737 522.171,180.737 C536.856,180.737 536.514,165.027 545.509,165.027 C550.062,165.027 554.616,167.645 554.616,172.199 C554.616,184.04 540.272,195.766 522.171,195.766 C496.555,195.766 481.414,181.079 481.414,152.846 C481.414,129.735 495.075,109.926 521.487,109.926" id="Fill-8" fill="#1C5383"></path>
        <path d="M593.1,119.716 C593.1,114.138 596.743,110.381 602.435,110.381 C608.128,110.381 611.771,114.138 611.771,119.716 L611.771,178.119 L642.965,178.119 C648.315,178.119 652.641,180.852 652.641,185.975 C652.641,191.098 648.315,193.83 642.965,193.83 L604.029,193.83 C597.427,193.83 593.1,191.212 593.1,182.901 L593.1,119.716" id="Fill-9" fill="#1C5383"></path>
        <path d="M698.524,130.645 L698.297,130.645 L687.254,163.547 L709.112,163.547 L698.524,130.645 Z M687.254,116.073 C688.847,111.861 691.807,110.381 696.361,110.381 L700.802,110.381 C705.013,110.381 708.77,111.406 710.82,117.212 L733.361,179.94 C734.045,181.763 735.182,185.063 735.182,187.113 C735.182,191.667 731.198,195.31 726.417,195.31 C722.318,195.31 719.358,193.83 717.992,190.186 L713.211,176.525 L683.155,176.525 L678.26,190.186 C677.008,193.83 674.389,195.31 669.949,195.31 C664.826,195.31 661.297,192.122 661.297,187.113 C661.297,185.063 662.435,181.763 663.118,179.94 L687.254,116.073 L687.254,116.073 Z" id="Fill-10" fill="#1C5383"></path>
        <path d="M764.558,179.485 L780.269,179.485 C787.555,179.485 795.752,178.005 795.752,168.556 C795.752,158.652 787.099,157.399 777.992,157.399 L764.558,157.399 L764.558,179.485 Z M764.558,145.56 L779.928,145.56 C788.693,145.56 792.906,142.03 792.906,135.541 C792.906,127.685 786.303,125.522 779.358,125.522 L764.558,125.522 L764.558,145.56 Z M745.888,122.79 C745.888,114.479 750.214,111.861 756.816,111.861 L781.635,111.861 C795.297,111.861 811.577,114.935 811.577,133.037 C811.577,139.981 807.819,146.584 800.078,149.658 L800.078,149.886 C808.73,152.163 814.423,158.31 814.423,169.581 C814.423,186.771 800.42,193.83 784.254,193.83 L756.816,193.83 C750.214,193.83 745.888,191.212 745.888,182.901 L745.888,122.79 L745.888,122.79 Z" id="Fill-11" fill="#1C5383"></path>
    </g>
</svg>