<svg width="100%" height="100%" viewBox="60 55 620 505" fill="none">
  <g id="planung-borders" class="fragment">
    <g id="planung-planung-abschlussborder">
      <path id="planung-Vector" d="M83.5 456.5H63.5V556.5H83.5V456.5Z" fill="#6D8830" />
    </g>
    <g id="planung-implborder">
        <path id="planung-Vector_3" d="M83.5 356.5H63.5V456.5H83.5V356.5Z" fill="#8BAF3D" />
        <path id="planung-Vector_4" d="M63.5 456.5H653.5" stroke="black" stroke-width="3" stroke-miterlimit="10" stroke-dasharray="9 9" />
    </g>
    <g id="planung-entwurfborder">
      <path id="planung-Vector_14" d="M83.5 256.5H63.5V356.5H83.5V256.5Z" fill="#A4C758" />
      <path id="planung-Vector_15" d="M63.5 356.5H653.5" stroke="black" stroke-width="3" stroke-miterlimit="10" stroke-dasharray="9 9" />
    </g>
    <g id="planung-planungborder">
      <path id="planung-Vector_25" d="M83.5 156.5H63.5V256.5H83.5V156.5Z" fill="#B9D47D" />
      <path id="planung-Vector_26" d="M63.5 256.5H653.5" stroke="black" stroke-width="3" stroke-miterlimit="10" stroke-dasharray="9 9" />
    </g>
    <g id="planung-initborder">
      <path id="planung-Vector_33" d="M83.5 56.5H63.5V156.5H83.5V56.5Z" fill="#CEE2A3" />
      <path id="planung-Vector_34" d="M63.5 156.5H653.5" stroke="black" stroke-width="3" stroke-miterlimit="10" stroke-dasharray="9 9" />
    </g>
  </g>

  <g id="planung-init" style="transform: translate(-160px, 0px);" class="fragment">
      <g id="planung-init9">
        <path id="planung-Vector_35" d="M593.5 106.5H606.91" stroke="black" stroke-width="5" stroke-miterlimit="10" />
        <path id="planung-Vector_36" d="M617.91 106.5L606.91 110.17V102.83L617.91 106.5Z" fill="black" stroke="black" stroke-width="5" stroke-miterlimit="10" />
      </g>
      <path id="planung-init8" d="M593.5 76.5H553.5V136.5H593.5V76.5Z" fill="#F08432" />
      <path id="planung-init7" d="M533.5 106.5H553.5H523.5H543.5" stroke="black" stroke-width="5" stroke-miterlimit="10" />
      <g id="planung-init6">
        <path id="planung-Vector_37" d="M533.5 76.5H413.5V136.5H533.5V76.5Z" fill="#246B68" />
        <g id="planung-Group_19">
            <g id="planung-Group_20">
              <path id="planung-PH" d="M465.069 105.742V110H462.579V97.9141H467.294C468.201 97.9141 468.998 98.0801 469.685 98.4121C470.376 98.7441 470.908 99.2173 471.278 99.8315C471.649 100.44 471.834 101.135 471.834 101.915C471.834 103.099 471.428 104.035 470.614 104.721C469.806 105.401 468.686 105.742 467.252 105.742H465.069ZM465.069 103.725H467.294C467.952 103.725 468.453 103.57 468.796 103.26C469.145 102.95 469.319 102.507 469.319 101.932C469.319 101.34 469.145 100.861 468.796 100.496C468.448 100.13 467.966 99.9422 467.352 99.9312H465.069V103.725ZM483.389 110H480.899V104.82H476.043V110H473.553V97.9141H476.043V102.812H480.899V97.9141H483.389V110Z" fill="white" />
            </g>
        </g>
      </g>
      <g id="planung-init5">
        <path id="planung-Vector_38" d="M373.5 106.5H396.91" stroke="black" stroke-width="5" stroke-miterlimit="10" />
        <path id="planung-Vector_39" d="M407.91 106.5L396.91 110.17V102.83L407.91 106.5Z" fill="black" stroke="black" stroke-width="5" stroke-miterlimit="10" />
      </g>
      <g id="planung-init3">
        <path id="planung-Vector_40" d="M373.5 76.5H253.5V136.5H373.5V76.5Z" fill="#246B68" />
        <g id="planung-Group_21">
            <g id="planung-Group_22">
              <path id="planung-QM-Plan" d="M289.99 104.231C289.99 105.36 289.808 106.342 289.442 107.178C289.077 108.008 288.571 108.675 287.923 109.178L289.932 110.755L288.347 112.158L285.773 110.091C285.48 110.141 285.176 110.166 284.86 110.166C283.859 110.166 282.965 109.925 282.179 109.444C281.393 108.962 280.785 108.276 280.353 107.385C279.921 106.489 279.703 105.459 279.697 104.297V103.7C279.697 102.51 279.91 101.464 280.336 100.562C280.768 99.6545 281.374 98.96 282.154 98.4785C282.94 97.9915 283.837 97.748 284.844 97.748C285.851 97.748 286.745 97.9915 287.525 98.4785C288.311 98.96 288.917 99.6545 289.343 100.562C289.774 101.464 289.99 102.507 289.99 103.691V104.231ZM287.467 103.683C287.467 102.416 287.24 101.453 286.786 100.794C286.332 100.136 285.685 99.8066 284.844 99.8066C284.008 99.8066 283.363 100.133 282.91 100.786C282.456 101.434 282.226 102.385 282.221 103.642V104.231C282.221 105.465 282.448 106.422 282.901 107.103C283.355 107.784 284.008 108.124 284.86 108.124C285.696 108.124 286.338 107.798 286.786 107.145C287.234 106.486 287.461 105.529 287.467 104.272V103.683ZM295.07 97.9141L298.175 106.68L301.263 97.9141H304.533V110H302.035V106.696L302.284 100.994L299.021 110H297.312L294.058 101.002L294.307 106.696V110H291.816V97.9141H295.07ZM311.215 105.792H306.542V103.857H311.215V105.792ZM315.789 105.742V110H313.299V97.9141H318.014C318.921 97.9141 319.718 98.0801 320.404 98.4121C321.096 98.7441 321.627 99.2173 321.998 99.8315C322.369 100.44 322.554 101.135 322.554 101.915C322.554 103.099 322.147 104.035 321.334 104.721C320.526 105.401 319.405 105.742 317.972 105.742H315.789ZM315.789 103.725H318.014C318.672 103.725 319.173 103.57 319.516 103.26C319.865 102.95 320.039 102.507 320.039 101.932C320.039 101.34 319.865 100.861 319.516 100.496C319.167 100.13 318.686 99.9422 318.072 99.9312H315.789V103.725ZM326.646 110H324.239V97.25H326.646V110ZM333.835 110C333.724 109.784 333.644 109.516 333.594 109.195C333.013 109.842 332.258 110.166 331.328 110.166C330.448 110.166 329.718 109.911 329.137 109.402C328.561 108.893 328.273 108.251 328.273 107.477C328.273 106.525 328.625 105.794 329.328 105.285C330.036 104.776 331.057 104.519 332.391 104.513H333.495V103.999C333.495 103.583 333.387 103.251 333.171 103.002C332.961 102.753 332.626 102.629 332.167 102.629C331.763 102.629 331.444 102.726 331.212 102.919C330.985 103.113 330.872 103.379 330.872 103.716H328.473C328.473 103.196 328.633 102.715 328.954 102.272C329.275 101.829 329.729 101.483 330.315 101.234C330.902 100.98 331.561 100.853 332.291 100.853C333.398 100.853 334.275 101.132 334.922 101.691C335.575 102.244 335.902 103.025 335.902 104.032V107.925C335.907 108.777 336.026 109.422 336.259 109.859V110H333.835ZM331.851 108.332C332.205 108.332 332.532 108.254 332.831 108.099C333.129 107.939 333.351 107.726 333.495 107.46V105.916H332.598C331.397 105.916 330.758 106.331 330.681 107.161L330.672 107.302C330.672 107.601 330.778 107.847 330.988 108.041C331.198 108.235 331.486 108.332 331.851 108.332ZM339.953 101.019L340.027 102.056C340.669 101.254 341.53 100.853 342.609 100.853C343.561 100.853 344.269 101.132 344.734 101.691C345.199 102.25 345.437 103.085 345.448 104.198V110H343.049V104.256C343.049 103.747 342.938 103.379 342.717 103.152C342.495 102.919 342.127 102.803 341.613 102.803C340.938 102.803 340.431 103.091 340.094 103.667V110H337.695V101.019H339.953Z" fill="white" />
            </g>
        </g>
      </g>
      <g id="planung-init2">
        <path id="planung-Vector_41" d="M213.5 106.5H236.91" stroke="black" stroke-width="5" stroke-miterlimit="10" />
        <path id="planung-Vector_42" d="M247.91 106.5L236.91 110.17V102.83L247.91 106.5Z" fill="black" stroke="black" stroke-width="5" stroke-miterlimit="10" />
      </g>
      <g id="planung-init1">
        <path id="planung-Vector_43" d="M213.5 76.5H93.5V136.5H213.5V76.5Z" fill="#246B68" />
        <g id="planung-Group_23">
            <g id="planung-Group_24">
              <path id="planung-Initialisierung" d="M104.227 110H101.737V97.9141H104.227V110ZM108.593 101.019L108.668 102.056C109.31 101.254 110.17 100.853 111.25 100.853C112.201 100.853 112.91 101.132 113.375 101.691C113.839 102.25 114.077 103.085 114.088 104.198V110H111.689V104.256C111.689 103.747 111.579 103.379 111.357 103.152C111.136 102.919 110.768 102.803 110.253 102.803C109.578 102.803 109.072 103.091 108.734 103.667V110H106.335V101.019H108.593ZM118.446 110H116.039V101.019H118.446V110ZM115.898 98.6943C115.898 98.3346 116.017 98.0386 116.255 97.8062C116.498 97.5737 116.828 97.4575 117.243 97.4575C117.652 97.4575 117.979 97.5737 118.222 97.8062C118.466 98.0386 118.587 98.3346 118.587 98.6943C118.587 99.0596 118.463 99.3584 118.214 99.5908C117.97 99.8232 117.647 99.9395 117.243 99.9395C116.839 99.9395 116.512 99.8232 116.263 99.5908C116.02 99.3584 115.898 99.0596 115.898 98.6943ZM123.302 98.8105V101.019H124.838V102.778H123.302V107.261C123.302 107.593 123.366 107.831 123.493 107.975C123.62 108.118 123.864 108.19 124.224 108.19C124.489 108.19 124.724 108.171 124.929 108.132V109.95C124.459 110.094 123.975 110.166 123.477 110.166C121.794 110.166 120.937 109.317 120.903 107.618V102.778H119.592V101.019H120.903V98.8105H123.302ZM128.706 110H126.299V101.019H128.706V110ZM126.158 98.6943C126.158 98.3346 126.277 98.0386 126.515 97.8062C126.758 97.5737 127.087 97.4575 127.502 97.4575C127.912 97.4575 128.238 97.5737 128.482 97.8062C128.725 98.0386 128.847 98.3346 128.847 98.6943C128.847 99.0596 128.723 99.3584 128.474 99.5908C128.23 99.8232 127.906 99.9395 127.502 99.9395C127.098 99.9395 126.772 99.8232 126.523 99.5908C126.279 99.3584 126.158 99.0596 126.158 98.6943ZM135.895 110C135.784 109.784 135.704 109.516 135.654 109.195C135.073 109.842 134.317 110.166 133.388 110.166C132.508 110.166 131.777 109.911 131.196 109.402C130.621 108.893 130.333 108.251 130.333 107.477C130.333 106.525 130.684 105.794 131.387 105.285C132.096 104.776 133.117 104.519 134.45 104.513H135.554V103.999C135.554 103.583 135.446 103.251 135.23 103.002C135.02 102.753 134.685 102.629 134.226 102.629C133.822 102.629 133.504 102.726 133.271 102.919C133.045 103.113 132.931 103.379 132.931 103.716H130.532C130.532 103.196 130.693 102.715 131.014 102.272C131.335 101.829 131.788 101.483 132.375 101.234C132.962 100.98 133.62 100.853 134.351 100.853C135.457 100.853 136.334 101.132 136.982 101.691C137.635 102.244 137.961 103.025 137.961 104.032V107.925C137.967 108.777 138.086 109.422 138.318 109.859V110H135.895ZM133.911 108.332C134.265 108.332 134.591 108.254 134.89 108.099C135.189 107.939 135.41 107.726 135.554 107.46V105.916H134.658C133.457 105.916 132.818 106.331 132.74 107.161L132.732 107.302C132.732 107.601 132.837 107.847 133.047 108.041C133.258 108.235 133.545 108.332 133.911 108.332ZM142.336 110H139.929V97.25H142.336V110ZM146.852 110H144.444V101.019H146.852V110ZM144.303 98.6943C144.303 98.3346 144.422 98.0386 144.66 97.8062C144.904 97.5737 145.233 97.4575 145.648 97.4575C146.057 97.4575 146.384 97.5737 146.627 97.8062C146.871 98.0386 146.993 98.3346 146.993 98.6943C146.993 99.0596 146.868 99.3584 146.619 99.5908C146.376 99.8232 146.052 99.9395 145.648 99.9395C145.244 99.9395 144.917 99.8232 144.668 99.5908C144.425 99.3584 144.303 99.0596 144.303 98.6943ZM153.7 107.518C153.7 107.225 153.553 106.995 153.26 106.829C152.972 106.658 152.507 106.505 151.865 106.373C149.729 105.924 148.661 105.017 148.661 103.65C148.661 102.853 148.99 102.189 149.649 101.658C150.313 101.121 151.179 100.853 152.247 100.853C153.387 100.853 154.297 101.121 154.978 101.658C155.664 102.194 156.007 102.892 156.007 103.75H153.608C153.608 103.406 153.498 103.124 153.276 102.903C153.055 102.676 152.709 102.562 152.239 102.562C151.835 102.562 151.522 102.654 151.301 102.836C151.079 103.019 150.969 103.251 150.969 103.534C150.969 103.799 151.093 104.015 151.342 104.181C151.597 104.342 152.023 104.483 152.621 104.604C153.218 104.721 153.722 104.854 154.131 105.003C155.399 105.468 156.032 106.273 156.032 107.418C156.032 108.237 155.681 108.902 154.978 109.411C154.275 109.914 153.368 110.166 152.255 110.166C151.503 110.166 150.833 110.033 150.247 109.768C149.666 109.496 149.209 109.128 148.877 108.664C148.545 108.193 148.379 107.687 148.379 107.145H150.653C150.675 107.571 150.833 107.897 151.126 108.124C151.42 108.351 151.813 108.464 152.305 108.464C152.764 108.464 153.11 108.379 153.343 108.207C153.581 108.03 153.7 107.8 153.7 107.518ZM160.116 110H157.709V101.019H160.116V110ZM157.568 98.6943C157.568 98.3346 157.687 98.0386 157.925 97.8062C158.168 97.5737 158.498 97.4575 158.913 97.4575C159.322 97.4575 159.649 97.5737 159.892 97.8062C160.136 98.0386 160.257 98.3346 160.257 98.6943C160.257 99.0596 160.133 99.3584 159.884 99.5908C159.64 99.8232 159.317 99.9395 158.913 99.9395C158.509 99.9395 158.182 99.8232 157.933 99.5908C157.69 99.3584 157.568 99.0596 157.568 98.6943ZM166.234 110.166C164.917 110.166 163.843 109.762 163.013 108.954C162.189 108.146 161.776 107.07 161.776 105.725V105.493C161.776 104.591 161.951 103.785 162.299 103.077C162.648 102.363 163.14 101.815 163.777 101.434C164.419 101.046 165.149 100.853 165.968 100.853C167.197 100.853 168.162 101.24 168.865 102.015C169.574 102.789 169.928 103.888 169.928 105.31V106.29H164.208C164.286 106.876 164.518 107.347 164.906 107.701C165.299 108.055 165.794 108.232 166.392 108.232C167.316 108.232 168.038 107.897 168.558 107.228L169.737 108.547C169.377 109.056 168.89 109.455 168.276 109.743C167.662 110.025 166.981 110.166 166.234 110.166ZM165.96 102.795C165.484 102.795 165.097 102.955 164.798 103.276C164.505 103.597 164.316 104.057 164.233 104.654H167.57V104.463C167.559 103.932 167.415 103.523 167.139 103.235C166.862 102.942 166.469 102.795 165.96 102.795ZM176.344 103.268C176.018 103.224 175.73 103.202 175.481 103.202C174.573 103.202 173.979 103.509 173.696 104.123V110H171.297V101.019H173.563L173.63 102.089C174.111 101.265 174.778 100.853 175.63 100.853C175.896 100.853 176.145 100.889 176.377 100.96L176.344 103.268ZM182.885 109.087C182.293 109.806 181.474 110.166 180.428 110.166C179.465 110.166 178.729 109.889 178.22 109.336C177.717 108.783 177.459 107.972 177.448 106.904V101.019H179.847V106.821C179.847 107.756 180.273 108.224 181.125 108.224C181.939 108.224 182.498 107.941 182.802 107.377V101.019H185.209V110H182.952L182.885 109.087ZM189.227 101.019L189.302 102.056C189.944 101.254 190.804 100.853 191.883 100.853C192.835 100.853 193.543 101.132 194.008 101.691C194.473 102.25 194.711 103.085 194.722 104.198V110H192.323V104.256C192.323 103.747 192.213 103.379 191.991 103.152C191.77 102.919 191.402 102.803 190.887 102.803C190.212 102.803 189.706 103.091 189.368 103.667V110H186.969V101.019H189.227ZM196.2 105.443C196.2 104.065 196.526 102.955 197.179 102.114C197.838 101.273 198.723 100.853 199.835 100.853C200.82 100.853 201.587 101.19 202.135 101.865L202.234 101.019H204.409V109.701C204.409 110.487 204.229 111.17 203.87 111.751C203.515 112.333 203.015 112.775 202.367 113.08C201.72 113.384 200.962 113.536 200.093 113.536C199.434 113.536 198.792 113.403 198.167 113.138C197.542 112.878 197.069 112.54 196.748 112.125L197.81 110.664C198.408 111.334 199.133 111.668 199.985 111.668C200.621 111.668 201.117 111.497 201.471 111.154C201.825 110.816 202.002 110.335 202.002 109.709V109.228C201.449 109.853 200.721 110.166 199.819 110.166C198.74 110.166 197.865 109.745 197.196 108.904C196.532 108.058 196.2 106.937 196.2 105.542V105.443ZM198.599 105.617C198.599 106.431 198.762 107.07 199.088 107.535C199.415 107.994 199.863 108.224 200.433 108.224C201.164 108.224 201.687 107.95 202.002 107.402V103.625C201.681 103.077 201.164 102.803 200.45 102.803C199.874 102.803 199.42 103.038 199.088 103.509C198.762 103.979 198.599 104.682 198.599 105.617Z" fill="white" />
            </g>
        </g>
      </g>
  </g>
  <g id="planung-planung" class="fragment">
      <g id="planung-planung6">
        <path id="planung-Vector_27" d="M433.5 206.5H446.91" stroke="black" stroke-width="5" stroke-miterlimit="10" />
        <path id="planung-Vector_28" d="M457.91 206.5L446.91 210.17V202.83L457.91 206.5Z" fill="black" stroke="black" stroke-width="5" stroke-miterlimit="10" />
      </g>
      <path id="planung-planung5" d="M433.5 176.5H393.5V236.5H433.5V176.5Z" fill="#F08432" />
      <path id="planung-planung4" d="M373.5 206.5H393.5" stroke="black" stroke-width="5" stroke-miterlimit="10" />
      <g id="planung-planung3">
        <path id="planung-Vector_29" d="M373.5 176.5H253.5V236.5H373.5V176.5Z" fill="#246B68" />
        <g id="planung-Group_15">
            <g id="planung-Group_16">
              <path id="planung-Rechnung" d="M280.053 205.576H278.069V210H275.579V197.914H280.07C281.498 197.914 282.599 198.232 283.374 198.869C284.148 199.505 284.536 200.404 284.536 201.566C284.536 202.391 284.356 203.08 283.996 203.633C283.642 204.181 283.102 204.618 282.377 204.945L284.992 209.884V210H282.319L280.053 205.576ZM278.069 203.559H280.078C280.703 203.559 281.188 203.401 281.531 203.085C281.874 202.764 282.045 202.325 282.045 201.766C282.045 201.196 281.882 200.747 281.556 200.421C281.235 200.094 280.739 199.931 280.07 199.931H278.069V203.559ZM290.413 210.166C289.096 210.166 288.022 209.762 287.192 208.954C286.367 208.146 285.955 207.07 285.955 205.725V205.493C285.955 204.591 286.129 203.785 286.478 203.077C286.827 202.363 287.319 201.815 287.956 201.434C288.597 201.046 289.328 200.853 290.147 200.853C291.375 200.853 292.341 201.24 293.044 202.015C293.752 202.789 294.106 203.888 294.106 205.31V206.29H288.387C288.465 206.876 288.697 207.347 289.084 207.701C289.477 208.055 289.973 208.232 290.57 208.232C291.494 208.232 292.217 207.897 292.737 207.228L293.916 208.547C293.556 209.056 293.069 209.455 292.455 209.743C291.84 210.025 291.16 210.166 290.413 210.166ZM290.139 202.795C289.663 202.795 289.275 202.955 288.977 203.276C288.683 203.597 288.495 204.057 288.412 204.654H291.749V204.463C291.738 203.932 291.594 203.523 291.317 203.235C291.041 202.942 290.648 202.795 290.139 202.795ZM299.211 208.232C299.654 208.232 300.014 208.11 300.291 207.867C300.567 207.623 300.711 207.299 300.722 206.896H302.972C302.966 207.504 302.8 208.063 302.474 208.572C302.147 209.076 301.699 209.469 301.129 209.751C300.564 210.028 299.939 210.166 299.253 210.166C297.969 210.166 296.956 209.759 296.215 208.946C295.473 208.127 295.103 206.998 295.103 205.559V205.401C295.103 204.018 295.471 202.914 296.207 202.089C296.943 201.265 297.952 200.853 299.236 200.853C300.36 200.853 301.259 201.174 301.934 201.815C302.615 202.452 302.961 203.301 302.972 204.364H300.722C300.711 203.899 300.567 203.523 300.291 203.235C300.014 202.942 299.649 202.795 299.195 202.795C298.636 202.795 298.213 203 297.925 203.409C297.643 203.813 297.501 204.472 297.501 205.385V205.634C297.501 206.558 297.643 207.222 297.925 207.626C298.207 208.03 298.636 208.232 299.211 208.232ZM306.682 201.998C307.319 201.234 308.118 200.853 309.081 200.853C311.029 200.853 312.017 201.984 312.044 204.248V210H309.646V204.314C309.646 203.799 309.535 203.42 309.313 203.177C309.092 202.928 308.724 202.803 308.209 202.803C307.507 202.803 306.998 203.074 306.682 203.617V210H304.283V197.25H306.682V201.998ZM316.062 201.019L316.137 202.056C316.779 201.254 317.639 200.853 318.718 200.853C319.67 200.853 320.378 201.132 320.843 201.691C321.308 202.25 321.546 203.085 321.557 204.198V210H319.158V204.256C319.158 203.747 319.048 203.379 318.826 203.152C318.605 202.919 318.237 202.803 317.722 202.803C317.047 202.803 316.541 203.091 316.203 203.667V210H313.804V201.019H316.062ZM328.762 209.087C328.17 209.806 327.351 210.166 326.305 210.166C325.342 210.166 324.606 209.889 324.097 209.336C323.594 208.783 323.336 207.972 323.325 206.904V201.019H325.724V206.821C325.724 207.756 326.15 208.224 327.002 208.224C327.816 208.224 328.375 207.941 328.679 207.377V201.019H331.086V210H328.829L328.762 209.087ZM335.104 201.019L335.179 202.056C335.821 201.254 336.681 200.853 337.76 200.853C338.712 200.853 339.42 201.132 339.885 201.691C340.35 202.25 340.588 203.085 340.599 204.198V210H338.2V204.256C338.2 203.747 338.09 203.379 337.868 203.152C337.647 202.919 337.279 202.803 336.764 202.803C336.089 202.803 335.583 203.091 335.245 203.667V210H332.846V201.019H335.104ZM342.077 205.443C342.077 204.065 342.403 202.955 343.056 202.114C343.715 201.273 344.6 200.853 345.712 200.853C346.697 200.853 347.464 201.19 348.012 201.865L348.111 201.019H350.286V209.701C350.286 210.487 350.106 211.17 349.747 211.751C349.392 212.333 348.892 212.775 348.244 213.08C347.597 213.384 346.839 213.536 345.97 213.536C345.311 213.536 344.669 213.403 344.044 213.138C343.419 212.878 342.945 212.54 342.625 212.125L343.687 210.664C344.285 211.334 345.01 211.668 345.862 211.668C346.498 211.668 346.993 211.497 347.348 211.154C347.702 210.816 347.879 210.335 347.879 209.709V209.228C347.326 209.853 346.598 210.166 345.696 210.166C344.617 210.166 343.742 209.745 343.073 208.904C342.409 208.058 342.077 206.937 342.077 205.542V205.443ZM344.476 205.617C344.476 206.431 344.639 207.07 344.965 207.535C345.292 207.994 345.74 208.224 346.31 208.224C347.041 208.224 347.563 207.95 347.879 207.402V203.625C347.558 203.077 347.041 202.803 346.327 202.803C345.751 202.803 345.297 203.038 344.965 203.509C344.639 203.979 344.476 204.682 344.476 205.617Z" fill="white" />
            </g>
        </g>
      </g>
      <g id="planung-planung2">
        <path id="planung-Vector_30" d="M213.5 206.5H236.91" stroke="black" stroke-width="5" stroke-miterlimit="10" />
        <path id="planung-Vector_31" d="M247.91 206.5L236.91 210.17V202.83L247.91 206.5Z" fill="black" stroke="black" stroke-width="5" stroke-miterlimit="10" />
      </g>
      <g id="planung-planung1">
        <path id="planung-Vector_32" d="M213.5 176.5H93.5V236.5H213.5V176.5Z" fill="#246B68" />
        <g id="planung-Group_17">
            <g id="planung-Group_18">
              <path id="planung-Planung" d="M125.069 205.742V210H122.579V197.914H127.294C128.201 197.914 128.998 198.08 129.685 198.412C130.376 198.744 130.908 199.217 131.278 199.832C131.649 200.44 131.834 201.135 131.834 201.915C131.834 203.099 131.428 204.035 130.614 204.721C129.806 205.401 128.686 205.742 127.252 205.742H125.069ZM125.069 203.725H127.294C127.952 203.725 128.453 203.57 128.796 203.26C129.145 202.95 129.319 202.507 129.319 201.932C129.319 201.34 129.145 200.861 128.796 200.496C128.448 200.13 127.966 199.942 127.352 199.931H125.069V203.725ZM135.927 210H133.52V197.25H135.927V210ZM143.115 210C143.005 209.784 142.924 209.516 142.875 209.195C142.293 209.842 141.538 210.166 140.608 210.166C139.729 210.166 138.998 209.911 138.417 209.402C137.841 208.893 137.554 208.251 137.554 207.477C137.554 206.525 137.905 205.794 138.608 205.285C139.316 204.776 140.337 204.519 141.671 204.513H142.775V203.999C142.775 203.583 142.667 203.251 142.451 203.002C142.241 202.753 141.906 202.629 141.447 202.629C141.043 202.629 140.725 202.726 140.492 202.919C140.265 203.113 140.152 203.379 140.152 203.716H137.753C137.753 203.196 137.913 202.715 138.234 202.272C138.555 201.829 139.009 201.483 139.596 201.234C140.182 200.98 140.841 200.853 141.571 200.853C142.678 200.853 143.555 201.132 144.203 201.691C144.856 202.244 145.182 203.025 145.182 204.032V207.925C145.188 208.777 145.307 209.422 145.539 209.859V210H143.115ZM141.131 208.332C141.486 208.332 141.812 208.254 142.111 208.099C142.41 207.939 142.631 207.726 142.775 207.46V205.916H141.878C140.678 205.916 140.038 206.331 139.961 207.161L139.953 207.302C139.953 207.601 140.058 207.847 140.268 208.041C140.478 208.235 140.766 208.332 141.131 208.332ZM149.233 201.019L149.308 202.056C149.95 201.254 150.81 200.853 151.889 200.853C152.841 200.853 153.549 201.132 154.014 201.691C154.479 202.25 154.717 203.085 154.728 204.198V210H152.329V204.256C152.329 203.747 152.218 203.379 151.997 203.152C151.776 202.919 151.408 202.803 150.893 202.803C150.218 202.803 149.712 203.091 149.374 203.667V210H146.975V201.019H149.233ZM161.933 209.087C161.341 209.806 160.522 210.166 159.476 210.166C158.513 210.166 157.777 209.889 157.268 209.336C156.764 208.783 156.507 207.972 156.496 206.904V201.019H158.895V206.821C158.895 207.756 159.321 208.224 160.173 208.224C160.987 208.224 161.546 207.941 161.85 207.377V201.019H164.257V210H162L161.933 209.087ZM168.275 201.019L168.35 202.056C168.992 201.254 169.852 200.853 170.931 200.853C171.883 200.853 172.591 201.132 173.056 201.691C173.521 202.25 173.759 203.085 173.77 204.198V210H171.371V204.256C171.371 203.747 171.26 203.379 171.039 203.152C170.818 202.919 170.45 202.803 169.935 202.803C169.26 202.803 168.754 203.091 168.416 203.667V210H166.017V201.019H168.275ZM175.248 205.443C175.248 204.065 175.574 202.955 176.227 202.114C176.886 201.273 177.771 200.853 178.883 200.853C179.868 200.853 180.635 201.19 181.183 201.865L181.282 201.019H183.457V209.701C183.457 210.487 183.277 211.17 182.917 211.751C182.563 212.333 182.062 212.775 181.415 213.08C180.768 213.384 180.009 213.536 179.141 213.536C178.482 213.536 177.84 213.403 177.215 213.138C176.59 212.878 176.116 212.54 175.795 212.125L176.858 210.664C177.456 211.334 178.181 211.668 179.033 211.668C179.669 211.668 180.164 211.497 180.519 211.154C180.873 210.816 181.05 210.335 181.05 209.709V209.228C180.496 209.853 179.769 210.166 178.867 210.166C177.788 210.166 176.913 209.745 176.244 208.904C175.58 208.058 175.248 206.937 175.248 205.542V205.443ZM177.646 205.617C177.646 206.431 177.81 207.07 178.136 207.535C178.463 207.994 178.911 208.224 179.481 208.224C180.211 208.224 180.734 207.95 181.05 207.402V203.625C180.729 203.077 180.211 202.803 179.498 202.803C178.922 202.803 178.468 203.038 178.136 203.509C177.81 203.979 177.646 204.682 177.646 205.617Z" fill="white" />
            </g>
        </g>
      </g>
  </g>
  <g id="planung-entwurf" class="fragment">
      <g id="planung-entwurf10">
        <path id="planung-Vector_16" d="M643.5 306.5H656.91" stroke="black" stroke-width="5" stroke-miterlimit="10" />
        <path id="planung-Vector_17" d="M667.91 306.5L656.91 310.17V302.83L667.91 306.5Z" fill="black" stroke="black" stroke-width="5" stroke-miterlimit="10" />
      </g>
      <path id="planung-entwurf9" d="M643.5 276.5H603.5V336.5H643.5V276.5Z" fill="#F08432" />
      <path id="planung-entwurf8" d="M583.5 306.5H606.91" stroke="black" stroke-width="5" stroke-miterlimit="10" />
      <g id="planung-entwurf7">
        <path id="planung-Vector_18" d="M583.5 276.5H463.5V336.5H583.5V276.5Z" fill="#246B68" />
        <g id="planung-Group_9">
            <g id="planung-Group_10">
              <path id="planung-Testfälle" d="M499.677 299.931H495.975V310H493.484V299.931H489.832V297.914H499.677V299.931ZM504.333 310.166C503.016 310.166 501.943 309.762 501.113 308.954C500.288 308.146 499.876 307.07 499.876 305.725V305.493C499.876 304.591 500.05 303.785 500.399 303.077C500.748 302.363 501.24 301.815 501.876 301.434C502.518 301.046 503.249 300.853 504.068 300.853C505.296 300.853 506.262 301.24 506.965 302.015C507.673 302.789 508.027 303.888 508.027 305.31V306.29H502.308C502.386 306.876 502.618 307.347 503.005 307.701C503.398 308.055 503.894 308.232 504.491 308.232C505.415 308.232 506.138 307.897 506.658 307.228L507.836 308.547C507.477 309.056 506.99 309.455 506.375 309.743C505.761 310.025 505.081 310.166 504.333 310.166ZM504.06 302.795C503.584 302.795 503.196 302.955 502.897 303.276C502.604 303.597 502.416 304.057 502.333 304.654H505.67V304.463C505.659 303.932 505.515 303.523 505.238 303.235C504.962 302.942 504.569 302.795 504.06 302.795ZM514.261 307.518C514.261 307.225 514.115 306.995 513.821 306.829C513.534 306.658 513.069 306.505 512.427 306.373C510.291 305.924 509.223 305.017 509.223 303.65C509.223 302.853 509.552 302.189 510.21 301.658C510.875 301.121 511.741 300.853 512.809 300.853C513.949 300.853 514.859 301.121 515.54 301.658C516.226 302.194 516.569 302.892 516.569 303.75H514.17C514.17 303.406 514.059 303.124 513.838 302.903C513.617 302.676 513.271 302.562 512.8 302.562C512.396 302.562 512.084 302.654 511.862 302.836C511.641 303.019 511.53 303.251 511.53 303.534C511.53 303.799 511.655 304.015 511.904 304.181C512.158 304.342 512.584 304.483 513.182 304.604C513.78 304.721 514.283 304.854 514.693 305.003C515.96 305.468 516.594 306.273 516.594 307.418C516.594 308.237 516.242 308.902 515.54 309.411C514.837 309.914 513.929 310.166 512.817 310.166C512.064 310.166 511.395 310.033 510.808 309.768C510.227 309.496 509.771 309.128 509.438 308.664C509.106 308.193 508.94 307.687 508.94 307.145H511.215C511.237 307.571 511.395 307.897 511.688 308.124C511.981 308.351 512.374 308.464 512.867 308.464C513.326 308.464 513.672 308.379 513.904 308.207C514.142 308.03 514.261 307.8 514.261 307.518ZM521.018 298.811V301.019H522.554V302.778H521.018V307.261C521.018 307.593 521.082 307.831 521.209 307.975C521.336 308.118 521.58 308.19 521.939 308.19C522.205 308.19 522.44 308.171 522.645 308.132V309.95C522.175 310.094 521.69 310.166 521.192 310.166C519.51 310.166 518.652 309.317 518.619 307.618V302.778H517.308V301.019H518.619V298.811H521.018ZM524.546 310V302.778H523.209V301.019H524.546V300.255C524.546 299.248 524.834 298.467 525.409 297.914C525.99 297.355 526.801 297.076 527.841 297.076C528.173 297.076 528.58 297.131 529.062 297.242L529.037 299.101C528.837 299.051 528.594 299.026 528.306 299.026C527.404 299.026 526.953 299.45 526.953 300.296V301.019H528.738V302.778H526.953V310H524.546ZM535.188 310C535.077 309.784 534.997 309.516 534.947 309.195C534.366 309.842 533.61 310.166 532.681 310.166C531.801 310.166 531.07 309.911 530.489 309.402C529.914 308.893 529.626 308.251 529.626 307.477C529.626 306.525 529.977 305.794 530.68 305.285C531.389 304.776 532.41 304.519 533.743 304.513H534.847V303.999C534.847 303.583 534.739 303.251 534.523 303.002C534.313 302.753 533.978 302.629 533.519 302.629C533.115 302.629 532.797 302.726 532.564 302.919C532.338 303.113 532.224 303.379 532.224 303.716H529.825C529.825 303.196 529.986 302.715 530.307 302.272C530.628 301.829 531.081 301.483 531.668 301.234C532.255 300.98 532.913 300.853 533.644 300.853C534.75 300.853 535.627 301.132 536.275 301.691C536.928 302.244 537.254 303.025 537.254 304.032V307.925C537.26 308.777 537.379 309.422 537.611 309.859V310H535.188ZM533.204 308.332C533.558 308.332 533.884 308.254 534.183 308.099C534.482 307.939 534.703 307.726 534.847 307.46V305.916H533.951C532.75 305.916 532.111 306.331 532.033 307.161L532.025 307.302C532.025 307.601 532.13 307.847 532.34 308.041C532.551 308.235 532.838 308.332 533.204 308.332ZM532.764 298.669C532.764 298.963 532.656 299.212 532.44 299.417C532.224 299.616 531.947 299.715 531.61 299.715C531.267 299.715 530.99 299.613 530.78 299.408C530.569 299.203 530.464 298.957 530.464 298.669C530.464 298.382 530.569 298.135 530.78 297.931C530.99 297.72 531.267 297.615 531.61 297.615C531.953 297.615 532.23 297.72 532.44 297.931C532.656 298.135 532.764 298.382 532.764 298.669ZM534.507 298.669C534.507 298.371 534.618 298.122 534.839 297.922C535.066 297.718 535.34 297.615 535.661 297.615C535.987 297.615 536.258 297.718 536.474 297.922C536.695 298.127 536.806 298.376 536.806 298.669C536.806 298.957 536.701 299.206 536.491 299.417C536.28 299.621 536.004 299.724 535.661 299.724C535.318 299.724 535.038 299.621 534.822 299.417C534.612 299.206 534.507 298.957 534.507 298.669ZM541.629 310H539.222V297.25H541.629V310ZM546.145 310H543.737V297.25H546.145V310ZM552.262 310.166C550.945 310.166 549.872 309.762 549.042 308.954C548.217 308.146 547.805 307.07 547.805 305.725V305.493C547.805 304.591 547.979 303.785 548.328 303.077C548.676 302.363 549.169 301.815 549.805 301.434C550.447 301.046 551.178 300.853 551.997 300.853C553.225 300.853 554.191 301.24 554.894 302.015C555.602 302.789 555.956 303.888 555.956 305.31V306.29H550.237C550.314 306.876 550.547 307.347 550.934 307.701C551.327 308.055 551.822 308.232 552.42 308.232C553.344 308.232 554.066 307.897 554.586 307.228L555.765 308.547C555.405 309.056 554.918 309.455 554.304 309.743C553.69 310.025 553.009 310.166 552.262 310.166ZM551.988 302.795C551.512 302.795 551.125 302.955 550.826 303.276C550.533 303.597 550.345 304.057 550.262 304.654H553.599V304.463C553.588 303.932 553.444 303.523 553.167 303.235C552.89 302.942 552.497 302.795 551.988 302.795Z" fill="white" />
            </g>
        </g>
      </g>
      <g id="planung-entwurf6">
        <path id="planung-Vector_19" d="M423.5 306.5H446.91" stroke="black" stroke-width="5" stroke-miterlimit="10" />
        <path id="planung-Vector_20" d="M457.91 306.5L446.91 310.17V302.83L457.91 306.5Z" fill="black" stroke="black" stroke-width="5" stroke-miterlimit="10" />
      </g>
      <g id="planung-entwurf5">
        <path id="planung-Vector_21" d="M423.5 276.5H303.5V336.5H423.5V276.5Z" fill="#246B68" />
        <g id="planung-Group_11">
            <g id="planung-Group_12">
              <path id="planung-Komponenten_2" d="M314.364 305.152L313.069 306.547V310H310.579V297.914H313.069V303.393L314.165 301.89L317.245 297.914H320.308L316.016 303.285L320.432 310H317.469L314.364 305.152ZM320.606 305.426C320.606 304.535 320.778 303.741 321.121 303.044C321.464 302.347 321.957 301.807 322.599 301.425C323.246 301.043 323.996 300.853 324.848 300.853C326.06 300.853 327.048 301.223 327.812 301.965C328.581 302.706 329.01 303.714 329.098 304.986L329.115 305.601C329.115 306.979 328.73 308.085 327.961 308.921C327.192 309.751 326.16 310.166 324.865 310.166C323.57 310.166 322.535 309.751 321.76 308.921C320.991 308.091 320.606 306.962 320.606 305.534V305.426ZM323.005 305.601C323.005 306.453 323.166 307.106 323.487 307.56C323.808 308.008 324.267 308.232 324.865 308.232C325.446 308.232 325.9 308.011 326.226 307.568C326.553 307.12 326.716 306.406 326.716 305.426C326.716 304.591 326.553 303.943 326.226 303.484C325.9 303.025 325.44 302.795 324.848 302.795C324.262 302.795 323.808 303.025 323.487 303.484C323.166 303.938 323.005 304.643 323.005 305.601ZM332.842 301.019L332.917 302.023C333.553 301.243 334.413 300.853 335.498 300.853C336.655 300.853 337.449 301.309 337.88 302.222C338.511 301.309 339.41 300.853 340.578 300.853C341.552 300.853 342.277 301.138 342.753 301.708C343.229 302.272 343.467 303.124 343.467 304.264V310H341.06V304.272C341.06 303.763 340.96 303.393 340.761 303.16C340.562 302.922 340.21 302.803 339.707 302.803C338.987 302.803 338.489 303.146 338.212 303.833L338.221 310H335.822V304.281C335.822 303.761 335.719 303.384 335.515 303.152C335.31 302.919 334.961 302.803 334.469 302.803C333.788 302.803 333.296 303.085 332.991 303.65V310H330.592V301.019H332.842ZM353.403 305.592C353.403 306.976 353.087 308.085 352.457 308.921C351.831 309.751 350.985 310.166 349.917 310.166C349.009 310.166 348.276 309.851 347.717 309.22V313.453H345.318V301.019H347.542L347.625 301.898C348.207 301.201 348.965 300.853 349.9 300.853C351.007 300.853 351.867 301.262 352.481 302.081C353.096 302.9 353.403 304.029 353.403 305.468V305.592ZM351.004 305.418C351.004 304.582 350.854 303.938 350.556 303.484C350.262 303.03 349.833 302.803 349.269 302.803C348.516 302.803 347.999 303.091 347.717 303.667V307.344C348.01 307.936 348.533 308.232 349.286 308.232C350.431 308.232 351.004 307.294 351.004 305.418ZM354.523 305.426C354.523 304.535 354.695 303.741 355.038 303.044C355.381 302.347 355.874 301.807 356.516 301.425C357.163 301.043 357.913 300.853 358.765 300.853C359.977 300.853 360.965 301.223 361.729 301.965C362.498 302.706 362.927 303.714 363.015 304.986L363.032 305.601C363.032 306.979 362.647 308.085 361.878 308.921C361.109 309.751 360.077 310.166 358.782 310.166C357.487 310.166 356.452 309.751 355.677 308.921C354.908 308.091 354.523 306.962 354.523 305.534V305.426ZM356.922 305.601C356.922 306.453 357.083 307.106 357.404 307.56C357.725 308.008 358.184 308.232 358.782 308.232C359.363 308.232 359.817 308.011 360.143 307.568C360.47 307.12 360.633 306.406 360.633 305.426C360.633 304.591 360.47 303.943 360.143 303.484C359.817 303.025 359.357 302.795 358.765 302.795C358.179 302.795 357.725 303.025 357.404 303.484C357.083 303.938 356.922 304.643 356.922 305.601ZM366.717 301.019L366.792 302.056C367.434 301.254 368.294 300.853 369.374 300.853C370.325 300.853 371.034 301.132 371.499 301.691C371.963 302.25 372.201 303.085 372.212 304.198V310H369.813V304.256C369.813 303.747 369.703 303.379 369.481 303.152C369.26 302.919 368.892 302.803 368.377 302.803C367.702 302.803 367.196 303.091 366.858 303.667V310H364.459V301.019H366.717ZM378.172 310.166C376.855 310.166 375.782 309.762 374.952 308.954C374.127 308.146 373.715 307.07 373.715 305.725V305.493C373.715 304.591 373.889 303.785 374.238 303.077C374.586 302.363 375.079 301.815 375.715 301.434C376.357 301.046 377.088 300.853 377.907 300.853C379.135 300.853 380.101 301.24 380.804 302.015C381.512 302.789 381.866 303.888 381.866 305.31V306.29H376.147C376.224 306.876 376.457 307.347 376.844 307.701C377.237 308.055 377.732 308.232 378.33 308.232C379.254 308.232 379.976 307.897 380.497 307.228L381.675 308.547C381.316 309.056 380.829 309.455 380.214 309.743C379.6 310.025 378.919 310.166 378.172 310.166ZM377.898 302.795C377.423 302.795 377.035 302.955 376.736 303.276C376.443 303.597 376.255 304.057 376.172 304.654H379.509V304.463C379.498 303.932 379.354 303.523 379.077 303.235C378.8 302.942 378.408 302.795 377.898 302.795ZM385.444 301.019L385.519 302.056C386.16 301.254 387.021 300.853 388.1 300.853C389.052 300.853 389.76 301.132 390.225 301.691C390.69 302.25 390.928 303.085 390.939 304.198V310H388.54V304.256C388.54 303.747 388.429 303.379 388.208 303.152C387.987 302.919 387.619 302.803 387.104 302.803C386.429 302.803 385.923 303.091 385.585 303.667V310H383.186V301.019H385.444ZM395.637 298.811V301.019H397.173V302.778H395.637V307.261C395.637 307.593 395.701 307.831 395.828 307.975C395.955 308.118 396.199 308.19 396.559 308.19C396.824 308.19 397.059 308.171 397.264 308.132V309.95C396.794 310.094 396.31 310.166 395.812 310.166C394.129 310.166 393.271 309.317 393.238 307.618V302.778H391.927V301.019H393.238V298.811H395.637ZM402.643 310.166C401.326 310.166 400.252 309.762 399.422 308.954C398.598 308.146 398.186 307.07 398.186 305.725V305.493C398.186 304.591 398.36 303.785 398.708 303.077C399.057 302.363 399.55 301.815 400.186 301.434C400.828 301.046 401.558 300.853 402.377 300.853C403.606 300.853 404.572 301.24 405.274 302.015C405.983 302.789 406.337 303.888 406.337 305.31V306.29H400.618C400.695 306.876 400.928 307.347 401.315 307.701C401.708 308.055 402.203 308.232 402.801 308.232C403.725 308.232 404.447 307.897 404.967 307.228L406.146 308.547C405.786 309.056 405.299 309.455 404.685 309.743C404.071 310.025 403.39 310.166 402.643 310.166ZM402.369 302.795C401.893 302.795 401.506 302.955 401.207 303.276C400.914 303.597 400.726 304.057 400.643 304.654H403.979V304.463C403.968 303.932 403.825 303.523 403.548 303.235C403.271 302.942 402.878 302.795 402.369 302.795ZM409.915 301.019L409.989 302.056C410.631 301.254 411.492 300.853 412.571 300.853C413.523 300.853 414.231 301.132 414.696 301.691C415.161 302.25 415.399 303.085 415.41 304.198V310H413.011V304.256C413.011 303.747 412.9 303.379 412.679 303.152C412.457 302.919 412.089 302.803 411.575 302.803C410.9 302.803 410.393 303.091 410.056 303.667V310H407.657V301.019H409.915Z" fill="white" />
            </g>
        </g>
      </g>
      <g id="planung-entwurf4">
        <path id="planung-Vector_22" d="M273.5 306.5H286.91" stroke="black" stroke-width="5" stroke-miterlimit="10" />
        <path id="planung-Vector_23" d="M297.91 306.5L286.91 310.17V302.83L297.91 306.5Z" fill="black" stroke="black" stroke-width="5" stroke-miterlimit="10" />
      </g>
      <path id="planung-entwurf3" d="M273.5 276.5H233.5V336.5H273.5V276.5Z" fill="#F08432" />
      <path id="planung-entwurf2" d="M213.5 306.5H233.5H213.5ZM213.5 306.5H233.5" stroke="black" stroke-width="5" stroke-miterlimit="10" />
      <g id="planung-entwurf1">
        <path id="planung-Vector_24" d="M213.5 276.5H93.5V336.5H213.5V276.5Z" fill="#246B68" />
        <g id="planung-Group_13">
            <g id="planung-Group_14">
              <path id="planung-Schnittstelle" d="M111.846 306.829C111.846 306.359 111.68 305.999 111.348 305.75C111.016 305.495 110.418 305.23 109.555 304.953C108.692 304.671 108.008 304.394 107.505 304.123C106.132 303.382 105.446 302.383 105.446 301.126C105.446 300.473 105.629 299.892 105.994 299.383C106.365 298.869 106.893 298.467 107.58 298.18C108.271 297.892 109.046 297.748 109.904 297.748C110.767 297.748 111.536 297.906 112.211 298.221C112.887 298.531 113.41 298.971 113.78 299.541C114.157 300.111 114.345 300.758 114.345 301.483H111.854C111.854 300.93 111.68 300.501 111.332 300.197C110.983 299.887 110.493 299.732 109.862 299.732C109.254 299.732 108.78 299.862 108.443 300.122C108.105 300.377 107.937 300.714 107.937 301.135C107.937 301.528 108.133 301.857 108.526 302.123C108.924 302.388 109.508 302.637 110.277 302.87C111.694 303.296 112.726 303.824 113.374 304.455C114.021 305.086 114.345 305.872 114.345 306.812C114.345 307.858 113.949 308.68 113.158 309.278C112.366 309.87 111.301 310.166 109.962 310.166C109.032 310.166 108.186 309.997 107.422 309.66C106.658 309.317 106.074 308.849 105.67 308.257C105.272 307.665 105.073 306.979 105.073 306.198H107.571C107.571 307.532 108.368 308.199 109.962 308.199C110.554 308.199 111.016 308.08 111.348 307.842C111.68 307.598 111.846 307.261 111.846 306.829ZM119.616 308.232C120.058 308.232 120.418 308.11 120.695 307.867C120.972 307.623 121.115 307.299 121.126 306.896H123.376C123.37 307.504 123.204 308.063 122.878 308.572C122.551 309.076 122.103 309.469 121.533 309.751C120.969 310.028 120.343 310.166 119.657 310.166C118.373 310.166 117.361 309.759 116.619 308.946C115.878 308.127 115.507 306.998 115.507 305.559V305.401C115.507 304.018 115.875 302.914 116.611 302.089C117.347 301.265 118.357 300.853 119.641 300.853C120.764 300.853 121.663 301.174 122.338 301.815C123.019 302.452 123.365 303.301 123.376 304.364H121.126C121.115 303.899 120.972 303.523 120.695 303.235C120.418 302.942 120.053 302.795 119.599 302.795C119.04 302.795 118.617 303 118.329 303.409C118.047 303.813 117.906 304.472 117.906 305.385V305.634C117.906 306.558 118.047 307.222 118.329 307.626C118.611 308.03 119.04 308.232 119.616 308.232ZM127.086 301.998C127.723 301.234 128.522 300.853 129.485 300.853C131.433 300.853 132.421 301.984 132.449 304.248V310H130.05V304.314C130.05 303.799 129.939 303.42 129.718 303.177C129.496 302.928 129.128 302.803 128.614 302.803C127.911 302.803 127.402 303.074 127.086 303.617V310H124.688V297.25H127.086V301.998ZM136.466 301.019L136.541 302.056C137.183 301.254 138.043 300.853 139.123 300.853C140.074 300.853 140.783 301.132 141.248 301.691C141.712 302.25 141.95 303.085 141.961 304.198V310H139.562V304.256C139.562 303.747 139.452 303.379 139.23 303.152C139.009 302.919 138.641 302.803 138.126 302.803C137.451 302.803 136.945 303.091 136.607 303.667V310H134.208V301.019H136.466ZM146.319 310H143.912V301.019H146.319V310ZM143.771 298.694C143.771 298.335 143.89 298.039 144.128 297.806C144.371 297.574 144.701 297.458 145.116 297.458C145.525 297.458 145.852 297.574 146.095 297.806C146.339 298.039 146.46 298.335 146.46 298.694C146.46 299.06 146.336 299.358 146.087 299.591C145.843 299.823 145.52 299.939 145.116 299.939C144.712 299.939 144.385 299.823 144.136 299.591C143.893 299.358 143.771 299.06 143.771 298.694ZM151.175 298.811V301.019H152.711V302.778H151.175V307.261C151.175 307.593 151.239 307.831 151.366 307.975C151.493 308.118 151.737 308.19 152.097 308.19C152.362 308.19 152.597 308.171 152.802 308.132V309.95C152.332 310.094 151.848 310.166 151.35 310.166C149.667 310.166 148.81 309.317 148.776 307.618V302.778H147.465V301.019H148.776V298.811H151.175ZM156.919 298.811V301.019H158.455V302.778H156.919V307.261C156.919 307.593 156.983 307.831 157.11 307.975C157.238 308.118 157.481 308.19 157.841 308.19C158.106 308.19 158.342 308.171 158.546 308.132V309.95C158.076 310.094 157.592 310.166 157.094 310.166C155.411 310.166 154.554 309.317 154.521 307.618V302.778H153.209V301.019H154.521V298.811H156.919ZM164.656 307.518C164.656 307.225 164.509 306.995 164.216 306.829C163.928 306.658 163.463 306.505 162.821 306.373C160.685 305.924 159.617 305.017 159.617 303.65C159.617 302.853 159.946 302.189 160.605 301.658C161.269 301.121 162.135 300.853 163.203 300.853C164.343 300.853 165.253 301.121 165.934 301.658C166.62 302.194 166.963 302.892 166.963 303.75H164.564C164.564 303.406 164.454 303.124 164.232 302.903C164.011 302.676 163.665 302.562 163.195 302.562C162.791 302.562 162.478 302.654 162.257 302.836C162.035 303.019 161.925 303.251 161.925 303.534C161.925 303.799 162.049 304.015 162.298 304.181C162.553 304.342 162.979 304.483 163.577 304.604C164.174 304.721 164.678 304.854 165.087 305.003C166.355 305.468 166.988 306.273 166.988 307.418C166.988 308.237 166.637 308.902 165.934 309.411C165.231 309.914 164.324 310.166 163.211 310.166C162.459 310.166 161.789 310.033 161.203 309.768C160.622 309.496 160.165 309.128 159.833 308.664C159.501 308.193 159.335 307.687 159.335 307.145H161.609C161.632 307.571 161.789 307.897 162.083 308.124C162.376 308.351 162.769 308.464 163.261 308.464C163.721 308.464 164.066 308.379 164.299 308.207C164.537 308.03 164.656 307.8 164.656 307.518ZM171.413 298.811V301.019H172.948V302.778H171.413V307.261C171.413 307.593 171.476 307.831 171.604 307.975C171.731 308.118 171.974 308.19 172.334 308.19C172.6 308.19 172.835 308.171 173.04 308.132V309.95C172.569 310.094 172.085 310.166 171.587 310.166C169.905 310.166 169.047 309.317 169.014 307.618V302.778H167.702V301.019H169.014V298.811H171.413ZM178.418 310.166C177.101 310.166 176.028 309.762 175.198 308.954C174.373 308.146 173.961 307.07 173.961 305.725V305.493C173.961 304.591 174.135 303.785 174.484 303.077C174.833 302.363 175.325 301.815 175.961 301.434C176.603 301.046 177.334 300.853 178.153 300.853C179.381 300.853 180.347 301.24 181.05 302.015C181.758 302.789 182.112 303.888 182.112 305.31V306.29H176.393C176.471 306.876 176.703 307.347 177.09 307.701C177.483 308.055 177.979 308.232 178.576 308.232C179.5 308.232 180.222 307.897 180.743 307.228L181.921 308.547C181.562 309.056 181.075 309.455 180.46 309.743C179.846 310.025 179.166 310.166 178.418 310.166ZM178.145 302.795C177.669 302.795 177.281 302.955 176.982 303.276C176.689 303.597 176.501 304.057 176.418 304.654H179.755V304.463C179.744 303.932 179.6 303.523 179.323 303.235C179.047 302.942 178.654 302.795 178.145 302.795ZM186.014 310H183.606V297.25H186.014V310ZM190.529 310H188.122V297.25H190.529V310ZM196.647 310.166C195.33 310.166 194.256 309.762 193.426 308.954C192.602 308.146 192.189 307.07 192.189 305.725V305.493C192.189 304.591 192.364 303.785 192.712 303.077C193.061 302.363 193.554 301.815 194.19 301.434C194.832 301.046 195.562 300.853 196.381 300.853C197.61 300.853 198.576 301.24 199.278 302.015C199.987 302.789 200.341 303.888 200.341 305.31V306.29H194.622C194.699 306.876 194.931 307.347 195.319 307.701C195.712 308.055 196.207 308.232 196.805 308.232C197.729 308.232 198.451 307.897 198.971 307.228L200.15 308.547C199.79 309.056 199.303 309.455 198.689 309.743C198.075 310.025 197.394 310.166 196.647 310.166ZM196.373 302.795C195.897 302.795 195.51 302.955 195.211 303.276C194.918 303.597 194.729 304.057 194.646 304.654H197.983V304.463C197.972 303.932 197.828 303.523 197.552 303.235C197.275 302.942 196.882 302.795 196.373 302.795Z" fill="white" />
            </g>
        </g>
      </g>
  </g>
  <g id="planung-impl" class="fragment">
      <g id="planung-impl8">
        <path id="planung-Vector_5" d="M593.5 406.5H606.91" stroke="black" stroke-width="5" stroke-miterlimit="10" />
        <path id="planung-Vector_6" d="M617.91 406.5L606.91 410.17V402.83L617.91 406.5Z" fill="black" stroke="black" stroke-width="5" stroke-miterlimit="10" />
      </g>
      <path id="planung-impl7" d="M593.5 376.5H553.5V436.5H593.5V376.5Z" fill="#F08432" />
      <path id="planung-impl6" d="M533.5 406.5H553.5" stroke="black" stroke-width="5" stroke-miterlimit="10" />
      <g id="planung-impl5">
        <path id="planung-Vector_7" d="M533.5 376.5H413.5V436.5H533.5V376.5Z" fill="#246B68" />
        <g id="planung-Group_3">
            <g id="planung-Group_4">
              <path id="planung-Bereitstellung" d="M420.079 410V397.914H424.312C425.779 397.914 426.891 398.196 427.649 398.761C428.408 399.32 428.787 400.141 428.787 401.226C428.787 401.818 428.634 402.341 428.33 402.795C428.026 403.243 427.602 403.572 427.06 403.783C427.68 403.938 428.167 404.25 428.521 404.721C428.881 405.191 429.061 405.767 429.061 406.447C429.061 407.609 428.69 408.489 427.948 409.087C427.207 409.685 426.15 409.989 424.777 410H420.079ZM422.569 404.737V408H424.703C425.289 408 425.746 407.861 426.072 407.584C426.404 407.302 426.57 406.915 426.57 406.422C426.57 405.316 425.998 404.754 424.852 404.737H422.569ZM422.569 402.978H424.412C425.668 402.955 426.296 402.455 426.296 401.475C426.296 400.927 426.136 400.534 425.815 400.296C425.5 400.053 424.999 399.931 424.312 399.931H422.569V402.978ZM434.913 410.166C433.596 410.166 432.522 409.762 431.692 408.954C430.867 408.146 430.455 407.07 430.455 405.725V405.493C430.455 404.591 430.629 403.785 430.978 403.077C431.327 402.363 431.819 401.815 432.456 401.434C433.097 401.046 433.828 400.853 434.647 400.853C435.875 400.853 436.841 401.24 437.544 402.015C438.252 402.789 438.606 403.888 438.606 405.31V406.29H432.887C432.965 406.876 433.197 407.347 433.584 407.701C433.977 408.055 434.473 408.232 435.07 408.232C435.994 408.232 436.717 407.897 437.237 407.228L438.416 408.547C438.056 409.056 437.569 409.455 436.955 409.743C436.34 410.025 435.66 410.166 434.913 410.166ZM434.639 402.795C434.163 402.795 433.775 402.955 433.477 403.276C433.183 403.597 432.995 404.057 432.912 404.654H436.249V404.463C436.238 403.932 436.094 403.523 435.817 403.235C435.541 402.942 435.148 402.795 434.639 402.795ZM445.023 403.268C444.696 403.224 444.409 403.202 444.16 403.202C443.252 403.202 442.657 403.509 442.375 404.123V410H439.976V401.019H442.242L442.309 402.089C442.79 401.265 443.457 400.853 444.309 400.853C444.575 400.853 444.824 400.889 445.056 400.96L445.023 403.268ZM450.153 410.166C448.836 410.166 447.762 409.762 446.932 408.954C446.108 408.146 445.695 407.07 445.695 405.725V405.493C445.695 404.591 445.87 403.785 446.218 403.077C446.567 402.363 447.059 401.815 447.696 401.434C448.338 401.046 449.068 400.853 449.887 400.853C451.116 400.853 452.081 401.24 452.784 402.015C453.493 402.789 453.847 403.888 453.847 405.31V406.29H448.127C448.205 406.876 448.437 407.347 448.825 407.701C449.218 408.055 449.713 408.232 450.311 408.232C451.235 408.232 451.957 407.897 452.477 407.228L453.656 408.547C453.296 409.056 452.809 409.455 452.195 409.743C451.581 410.025 450.9 410.166 450.153 410.166ZM449.879 402.795C449.403 402.795 449.016 402.955 448.717 403.276C448.424 403.597 448.235 404.057 448.152 404.654H451.489V404.463C451.478 403.932 451.334 403.523 451.058 403.235C450.781 402.942 450.388 402.795 449.879 402.795ZM457.748 410H455.341V401.019H457.748V410ZM455.2 398.694C455.2 398.335 455.319 398.039 455.557 397.806C455.8 397.574 456.129 397.458 456.544 397.458C456.954 397.458 457.28 397.574 457.524 397.806C457.767 398.039 457.889 398.335 457.889 398.694C457.889 399.06 457.765 399.358 457.516 399.591C457.272 399.823 456.948 399.939 456.544 399.939C456.14 399.939 455.814 399.823 455.565 399.591C455.321 399.358 455.2 399.06 455.2 398.694ZM462.604 398.811V401.019H464.14V402.778H462.604V407.261C462.604 407.593 462.668 407.831 462.795 407.975C462.922 408.118 463.166 408.19 463.525 408.19C463.791 408.19 464.026 408.171 464.231 408.132V409.95C463.761 410.094 463.276 410.166 462.778 410.166C461.096 410.166 460.238 409.317 460.205 407.618V402.778H458.894V401.019H460.205V398.811H462.604ZM470.34 407.518C470.34 407.225 470.194 406.995 469.9 406.829C469.613 406.658 469.148 406.505 468.506 406.373C466.37 405.924 465.302 405.017 465.302 403.65C465.302 402.853 465.631 402.189 466.29 401.658C466.954 401.121 467.82 400.853 468.888 400.853C470.028 400.853 470.938 401.121 471.619 401.658C472.305 402.194 472.648 402.892 472.648 403.75H470.249C470.249 403.406 470.138 403.124 469.917 402.903C469.696 402.676 469.35 402.562 468.879 402.562C468.475 402.562 468.163 402.654 467.941 402.836C467.72 403.019 467.609 403.251 467.609 403.534C467.609 403.799 467.734 404.015 467.983 404.181C468.237 404.342 468.664 404.483 469.261 404.604C469.859 404.721 470.362 404.854 470.772 405.003C472.039 405.468 472.673 406.273 472.673 407.418C472.673 408.237 472.321 408.902 471.619 409.411C470.916 409.914 470.008 410.166 468.896 410.166C468.143 410.166 467.474 410.033 466.887 409.768C466.306 409.496 465.85 409.128 465.518 408.664C465.186 408.193 465.02 407.687 465.02 407.145H467.294C467.316 407.571 467.474 407.897 467.767 408.124C468.06 408.351 468.453 408.464 468.946 408.464C469.405 408.464 469.751 408.379 469.983 408.207C470.221 408.03 470.34 407.8 470.34 407.518ZM477.097 398.811V401.019H478.633V402.778H477.097V407.261C477.097 407.593 477.161 407.831 477.288 407.975C477.415 408.118 477.659 408.19 478.019 408.19C478.284 408.19 478.519 408.171 478.724 408.132V409.95C478.254 410.094 477.77 410.166 477.271 410.166C475.589 410.166 474.731 409.317 474.698 407.618V402.778H473.387V401.019H474.698V398.811H477.097ZM484.103 410.166C482.786 410.166 481.712 409.762 480.882 408.954C480.058 408.146 479.646 407.07 479.646 405.725V405.493C479.646 404.591 479.82 403.785 480.168 403.077C480.517 402.363 481.01 401.815 481.646 401.434C482.288 401.046 483.018 400.853 483.837 400.853C485.066 400.853 486.032 401.24 486.734 402.015C487.443 402.789 487.797 403.888 487.797 405.31V406.29H482.078C482.155 406.876 482.388 407.347 482.775 407.701C483.168 408.055 483.663 408.232 484.261 408.232C485.185 408.232 485.907 407.897 486.427 407.228L487.606 408.547C487.246 409.056 486.759 409.455 486.145 409.743C485.531 410.025 484.85 410.166 484.103 410.166ZM483.829 402.795C483.353 402.795 482.966 402.955 482.667 403.276C482.374 403.597 482.186 404.057 482.103 404.654H485.439V404.463C485.428 403.932 485.285 403.523 485.008 403.235C484.731 402.942 484.338 402.795 483.829 402.795ZM491.698 410H489.291V397.25H491.698V410ZM496.214 410H493.807V397.25H496.214V410ZM503.577 409.087C502.985 409.806 502.166 410.166 501.12 410.166C500.157 410.166 499.421 409.889 498.912 409.336C498.408 408.783 498.151 407.972 498.14 406.904V401.019H500.539V406.821C500.539 407.756 500.965 408.224 501.817 408.224C502.63 408.224 503.189 407.941 503.494 407.377V401.019H505.901V410H503.643L503.577 409.087ZM509.918 401.019L509.993 402.056C510.635 401.254 511.496 400.853 512.575 400.853C513.527 400.853 514.235 401.132 514.7 401.691C515.165 402.25 515.403 403.085 515.414 404.198V410H513.015V404.256C513.015 403.747 512.904 403.379 512.683 403.152C512.461 402.919 512.093 402.803 511.579 402.803C510.903 402.803 510.397 403.091 510.06 403.667V410H507.661V401.019H509.918ZM516.891 405.443C516.891 404.065 517.218 402.955 517.871 402.114C518.529 401.273 519.415 400.853 520.527 400.853C521.512 400.853 522.278 401.19 522.826 401.865L522.926 401.019H525.101V409.701C525.101 410.487 524.921 411.17 524.561 411.751C524.207 412.333 523.706 412.775 523.059 413.08C522.411 413.384 521.653 413.536 520.784 413.536C520.126 413.536 519.484 413.403 518.858 413.138C518.233 412.878 517.76 412.54 517.439 412.125L518.501 410.664C519.099 411.334 519.824 411.668 520.676 411.668C521.313 411.668 521.808 411.497 522.162 411.154C522.516 410.816 522.693 410.335 522.693 409.709V409.228C522.14 409.853 521.412 410.166 520.51 410.166C519.431 410.166 518.557 409.745 517.887 408.904C517.223 408.058 516.891 406.937 516.891 405.542V405.443ZM519.29 405.617C519.29 406.431 519.453 407.07 519.78 407.535C520.106 407.994 520.555 408.224 521.125 408.224C521.855 408.224 522.378 407.95 522.693 407.402V403.625C522.372 403.077 521.855 402.803 521.141 402.803C520.566 402.803 520.112 403.038 519.78 403.509C519.453 403.979 519.29 404.682 519.29 405.617Z" fill="white" />
            </g>
        </g>
      </g>
      <g id="planung-impl4">
        <path id="planung-Vector_8" d="M373.5 406.5H396.91" stroke="black" stroke-width="5" stroke-miterlimit="10" />
        <path id="planung-Vector_9" d="M407.91 406.5L396.91 410.17V402.83L407.91 406.5Z" fill="black" stroke="black" stroke-width="5" stroke-miterlimit="10" />
      </g>
      <g id="planung-impl3">
        <path id="planung-Vector_10" d="M373.5 376.5H253.5V436.5H373.5V376.5Z" fill="#246B68" />
        <g id="planung-Group_5">
            <g id="planung-Group_6">
              <path id="planung-Komponenten" d="M264.364 405.152L263.069 406.547V410H260.579V397.914H263.069V403.393L264.165 401.89L267.245 397.914H270.308L266.016 403.285L270.432 410H267.469L264.364 405.152ZM270.606 405.426C270.606 404.535 270.778 403.741 271.121 403.044C271.464 402.347 271.957 401.807 272.599 401.425C273.246 401.043 273.996 400.853 274.848 400.853C276.06 400.853 277.048 401.223 277.812 401.965C278.581 402.706 279.01 403.714 279.098 404.986L279.115 405.601C279.115 406.979 278.73 408.085 277.961 408.921C277.192 409.751 276.16 410.166 274.865 410.166C273.57 410.166 272.535 409.751 271.76 408.921C270.991 408.091 270.606 406.962 270.606 405.534V405.426ZM273.005 405.601C273.005 406.453 273.166 407.106 273.487 407.56C273.808 408.008 274.267 408.232 274.865 408.232C275.446 408.232 275.9 408.011 276.226 407.568C276.553 407.12 276.716 406.406 276.716 405.426C276.716 404.591 276.553 403.943 276.226 403.484C275.9 403.025 275.44 402.795 274.848 402.795C274.262 402.795 273.808 403.025 273.487 403.484C273.166 403.938 273.005 404.643 273.005 405.601ZM282.842 401.019L282.917 402.023C283.553 401.243 284.413 400.853 285.498 400.853C286.655 400.853 287.449 401.309 287.88 402.222C288.511 401.309 289.41 400.853 290.578 400.853C291.552 400.853 292.277 401.138 292.753 401.708C293.229 402.272 293.467 403.124 293.467 404.264V410H291.06V404.272C291.06 403.763 290.96 403.393 290.761 403.16C290.562 402.922 290.21 402.803 289.707 402.803C288.987 402.803 288.489 403.146 288.212 403.833L288.221 410H285.822V404.281C285.822 403.761 285.719 403.384 285.515 403.152C285.31 402.919 284.961 402.803 284.469 402.803C283.788 402.803 283.296 403.085 282.991 403.65V410H280.592V401.019H282.842ZM303.403 405.592C303.403 406.976 303.087 408.085 302.457 408.921C301.831 409.751 300.985 410.166 299.917 410.166C299.009 410.166 298.276 409.851 297.717 409.22V413.453H295.318V401.019H297.542L297.625 401.898C298.207 401.201 298.965 400.853 299.9 400.853C301.007 400.853 301.867 401.262 302.481 402.081C303.096 402.9 303.403 404.029 303.403 405.468V405.592ZM301.004 405.418C301.004 404.582 300.854 403.938 300.556 403.484C300.262 403.03 299.833 402.803 299.269 402.803C298.516 402.803 297.999 403.091 297.717 403.667V407.344C298.01 407.936 298.533 408.232 299.286 408.232C300.431 408.232 301.004 407.294 301.004 405.418ZM304.523 405.426C304.523 404.535 304.695 403.741 305.038 403.044C305.381 402.347 305.874 401.807 306.516 401.425C307.163 401.043 307.913 400.853 308.765 400.853C309.977 400.853 310.965 401.223 311.729 401.965C312.498 402.706 312.927 403.714 313.015 404.986L313.032 405.601C313.032 406.979 312.647 408.085 311.878 408.921C311.109 409.751 310.077 410.166 308.782 410.166C307.487 410.166 306.452 409.751 305.677 408.921C304.908 408.091 304.523 406.962 304.523 405.534V405.426ZM306.922 405.601C306.922 406.453 307.083 407.106 307.404 407.56C307.725 408.008 308.184 408.232 308.782 408.232C309.363 408.232 309.817 408.011 310.143 407.568C310.47 407.12 310.633 406.406 310.633 405.426C310.633 404.591 310.47 403.943 310.143 403.484C309.817 403.025 309.357 402.795 308.765 402.795C308.179 402.795 307.725 403.025 307.404 403.484C307.083 403.938 306.922 404.643 306.922 405.601ZM316.717 401.019L316.792 402.056C317.434 401.254 318.294 400.853 319.374 400.853C320.325 400.853 321.034 401.132 321.499 401.691C321.963 402.25 322.201 403.085 322.212 404.198V410H319.813V404.256C319.813 403.747 319.703 403.379 319.481 403.152C319.26 402.919 318.892 402.803 318.377 402.803C317.702 402.803 317.196 403.091 316.858 403.667V410H314.459V401.019H316.717ZM328.172 410.166C326.855 410.166 325.782 409.762 324.952 408.954C324.127 408.146 323.715 407.07 323.715 405.725V405.493C323.715 404.591 323.889 403.785 324.238 403.077C324.586 402.363 325.079 401.815 325.715 401.434C326.357 401.046 327.088 400.853 327.907 400.853C329.135 400.853 330.101 401.24 330.804 402.015C331.512 402.789 331.866 403.888 331.866 405.31V406.29H326.147C326.224 406.876 326.457 407.347 326.844 407.701C327.237 408.055 327.732 408.232 328.33 408.232C329.254 408.232 329.976 407.897 330.497 407.228L331.675 408.547C331.316 409.056 330.829 409.455 330.214 409.743C329.6 410.025 328.919 410.166 328.172 410.166ZM327.898 402.795C327.423 402.795 327.035 402.955 326.736 403.276C326.443 403.597 326.255 404.057 326.172 404.654H329.509V404.463C329.498 403.932 329.354 403.523 329.077 403.235C328.8 402.942 328.408 402.795 327.898 402.795ZM335.444 401.019L335.519 402.056C336.16 401.254 337.021 400.853 338.1 400.853C339.052 400.853 339.76 401.132 340.225 401.691C340.69 402.25 340.928 403.085 340.939 404.198V410H338.54V404.256C338.54 403.747 338.429 403.379 338.208 403.152C337.987 402.919 337.619 402.803 337.104 402.803C336.429 402.803 335.923 403.091 335.585 403.667V410H333.186V401.019H335.444ZM345.637 398.811V401.019H347.173V402.778H345.637V407.261C345.637 407.593 345.701 407.831 345.828 407.975C345.955 408.118 346.199 408.19 346.559 408.19C346.824 408.19 347.059 408.171 347.264 408.132V409.95C346.794 410.094 346.31 410.166 345.812 410.166C344.129 410.166 343.271 409.317 343.238 407.618V402.778H341.927V401.019H343.238V398.811H345.637ZM352.643 410.166C351.326 410.166 350.252 409.762 349.422 408.954C348.598 408.146 348.186 407.07 348.186 405.725V405.493C348.186 404.591 348.36 403.785 348.708 403.077C349.057 402.363 349.55 401.815 350.186 401.434C350.828 401.046 351.558 400.853 352.377 400.853C353.606 400.853 354.572 401.24 355.274 402.015C355.983 402.789 356.337 403.888 356.337 405.31V406.29H350.618C350.695 406.876 350.928 407.347 351.315 407.701C351.708 408.055 352.203 408.232 352.801 408.232C353.725 408.232 354.447 407.897 354.967 407.228L356.146 408.547C355.786 409.056 355.299 409.455 354.685 409.743C354.071 410.025 353.39 410.166 352.643 410.166ZM352.369 402.795C351.893 402.795 351.506 402.955 351.207 403.276C350.914 403.597 350.726 404.057 350.643 404.654H353.979V404.463C353.968 403.932 353.825 403.523 353.548 403.235C353.271 402.942 352.878 402.795 352.369 402.795ZM359.915 401.019L359.989 402.056C360.631 401.254 361.492 400.853 362.571 400.853C363.523 400.853 364.231 401.132 364.696 401.691C365.161 402.25 365.399 403.085 365.41 404.198V410H363.011V404.256C363.011 403.747 362.9 403.379 362.679 403.152C362.457 402.919 362.089 402.803 361.575 402.803C360.9 402.803 360.393 403.091 360.056 403.667V410H357.657V401.019H359.915Z" fill="white" />
            </g>
        </g>
      </g>
      <g id="planung-impl2">
        <path id="planung-Vector_11" d="M213.5 406.5H236.91" stroke="black" stroke-width="5" stroke-miterlimit="10" />
        <path id="planung-Vector_12" d="M247.91 406.5L236.91 410.17V402.83L247.91 406.5Z" fill="black" stroke="black" stroke-width="5" stroke-miterlimit="10" />
      </g>
      <g id="planung-impl1">
        <path id="planung-Vector_13" d="M213.5 376.5H93.5V436.5H213.5V376.5Z" fill="#246B68" />
        <g id="planung-Group_7">
            <g id="planung-Group_8">
              <path id="planung-Tests" d="M141.677 399.931H137.975V410H135.484V399.931H131.832V397.914H141.677V399.931ZM146.333 410.166C145.016 410.166 143.943 409.762 143.113 408.954C142.288 408.146 141.876 407.07 141.876 405.725V405.493C141.876 404.591 142.05 403.785 142.399 403.077C142.748 402.363 143.24 401.815 143.876 401.434C144.518 401.046 145.249 400.853 146.068 400.853C147.296 400.853 148.262 401.24 148.965 402.015C149.673 402.789 150.027 403.888 150.027 405.31V406.29H144.308C144.386 406.876 144.618 407.347 145.005 407.701C145.398 408.055 145.894 408.232 146.491 408.232C147.415 408.232 148.138 407.897 148.658 407.228L149.836 408.547C149.477 409.056 148.99 409.455 148.375 409.743C147.761 410.025 147.081 410.166 146.333 410.166ZM146.06 402.795C145.584 402.795 145.196 402.955 144.897 403.276C144.604 403.597 144.416 404.057 144.333 404.654H147.67V404.463C147.659 403.932 147.515 403.523 147.238 403.235C146.962 402.942 146.569 402.795 146.06 402.795ZM156.261 407.518C156.261 407.225 156.115 406.995 155.821 406.829C155.534 406.658 155.069 406.505 154.427 406.373C152.291 405.924 151.223 405.017 151.223 403.65C151.223 402.853 151.552 402.189 152.21 401.658C152.875 401.121 153.741 400.853 154.809 400.853C155.949 400.853 156.859 401.121 157.54 401.658C158.226 402.194 158.569 402.892 158.569 403.75H156.17C156.17 403.406 156.059 403.124 155.838 402.903C155.617 402.676 155.271 402.562 154.8 402.562C154.396 402.562 154.084 402.654 153.862 402.836C153.641 403.019 153.53 403.251 153.53 403.534C153.53 403.799 153.655 404.015 153.904 404.181C154.158 404.342 154.584 404.483 155.182 404.604C155.78 404.721 156.283 404.854 156.693 405.003C157.96 405.468 158.594 406.273 158.594 407.418C158.594 408.237 158.242 408.902 157.54 409.411C156.837 409.914 155.929 410.166 154.817 410.166C154.064 410.166 153.395 410.033 152.808 409.768C152.227 409.496 151.771 409.128 151.438 408.664C151.106 408.193 150.94 407.687 150.94 407.145H153.215C153.237 407.571 153.395 407.897 153.688 408.124C153.981 408.351 154.374 408.464 154.867 408.464C155.326 408.464 155.672 408.379 155.904 408.207C156.142 408.03 156.261 407.8 156.261 407.518ZM163.018 398.811V401.019H164.554V402.778H163.018V407.261C163.018 407.593 163.082 407.831 163.209 407.975C163.336 408.118 163.58 408.19 163.939 408.19C164.205 408.19 164.44 408.171 164.645 408.132V409.95C164.175 410.094 163.69 410.166 163.192 410.166C161.51 410.166 160.652 409.317 160.619 407.618V402.778H159.308V401.019H160.619V398.811H163.018ZM170.754 407.518C170.754 407.225 170.608 406.995 170.314 406.829C170.027 406.658 169.562 406.505 168.92 406.373C166.784 405.924 165.716 405.017 165.716 403.65C165.716 402.853 166.045 402.189 166.704 401.658C167.368 401.121 168.234 400.853 169.302 400.853C170.442 400.853 171.352 401.121 172.033 401.658C172.719 402.194 173.062 402.892 173.062 403.75H170.663C170.663 403.406 170.552 403.124 170.331 402.903C170.11 402.676 169.764 402.562 169.293 402.562C168.889 402.562 168.577 402.654 168.355 402.836C168.134 403.019 168.023 403.251 168.023 403.534C168.023 403.799 168.148 404.015 168.397 404.181C168.652 404.342 169.078 404.483 169.675 404.604C170.273 404.721 170.777 404.854 171.186 405.003C172.453 405.468 173.087 406.273 173.087 407.418C173.087 408.237 172.736 408.902 172.033 409.411C171.33 409.914 170.422 410.166 169.31 410.166C168.557 410.166 167.888 410.033 167.301 409.768C166.72 409.496 166.264 409.128 165.932 408.664C165.6 408.193 165.434 407.687 165.434 407.145H167.708C167.73 407.571 167.888 407.897 168.181 408.124C168.474 408.351 168.867 408.464 169.36 408.464C169.819 408.464 170.165 408.379 170.397 408.207C170.635 408.03 170.754 407.8 170.754 407.518Z" fill="white" />
            </g>
        </g>
      </g>
  </g>
  <g id="planung-abschluss" class="fragment">
      <path id="planung-abschluss3" d="M273.5 476.5H233.5V536.5H273.5V476.5Z" fill="#F08432" />
      <path id="planung-abschluss2" d="M213.5 506.5H233.5H213.5ZM213.5 506.5H233.5" stroke="black" stroke-width="5" stroke-miterlimit="10" />
      <g id="planung-abschluss1">
        <path id="planung-Vector_2" d="M213.5 476.5H93.5V536.5H213.5V476.5Z" fill="#246B68" />
        <g id="planung-Group">
            <g id="planung-Group_2">
              <path id="planung-Abschluss" d="M120.902 507.51H116.536L115.706 510H113.058L117.557 497.914H119.865L124.389 510H121.741L120.902 507.51ZM117.208 505.493H120.23L118.711 500.969L117.208 505.493ZM133.453 505.592C133.453 507.031 133.146 508.154 132.532 508.962C131.917 509.765 131.06 510.166 129.958 510.166C128.985 510.166 128.207 509.792 127.626 509.045L127.518 510H125.36V497.25H127.759V501.824C128.312 501.176 129.04 500.853 129.942 500.853C131.038 500.853 131.895 501.257 132.515 502.064C133.14 502.867 133.453 503.999 133.453 505.459V505.592ZM131.054 505.418C131.054 504.51 130.91 503.849 130.623 503.434C130.335 503.014 129.906 502.803 129.336 502.803C128.572 502.803 128.047 503.116 127.759 503.741V507.286C128.052 507.917 128.583 508.232 129.353 508.232C130.127 508.232 130.636 507.85 130.88 507.086C130.996 506.721 131.054 506.165 131.054 505.418ZM139.803 507.518C139.803 507.225 139.657 506.995 139.363 506.829C139.076 506.658 138.611 506.505 137.969 506.373C135.833 505.924 134.765 505.017 134.765 503.65C134.765 502.853 135.094 502.189 135.752 501.658C136.417 501.121 137.283 500.853 138.351 500.853C139.491 500.853 140.401 501.121 141.082 501.658C141.768 502.194 142.111 502.892 142.111 503.75H139.712C139.712 503.406 139.601 503.124 139.38 502.903C139.159 502.676 138.813 502.562 138.342 502.562C137.938 502.562 137.626 502.654 137.404 502.836C137.183 503.019 137.072 503.251 137.072 503.534C137.072 503.799 137.197 504.015 137.446 504.181C137.7 504.342 138.126 504.483 138.724 504.604C139.322 504.721 139.825 504.854 140.235 505.003C141.502 505.468 142.136 506.273 142.136 507.418C142.136 508.237 141.784 508.902 141.082 509.411C140.379 509.914 139.471 510.166 138.359 510.166C137.606 510.166 136.937 510.033 136.35 509.768C135.769 509.496 135.312 509.128 134.98 508.664C134.648 508.193 134.482 507.687 134.482 507.145H136.757C136.779 507.571 136.937 507.897 137.23 508.124C137.523 508.351 137.916 508.464 138.409 508.464C138.868 508.464 139.214 508.379 139.446 508.207C139.684 508.03 139.803 507.8 139.803 507.518ZM147.423 508.232C147.866 508.232 148.226 508.11 148.502 507.867C148.779 507.623 148.923 507.299 148.934 506.896H151.184C151.178 507.504 151.012 508.063 150.686 508.572C150.359 509.076 149.911 509.469 149.341 509.751C148.776 510.028 148.151 510.166 147.465 510.166C146.181 510.166 145.168 509.759 144.427 508.946C143.685 508.127 143.314 506.998 143.314 505.559V505.401C143.314 504.018 143.682 502.914 144.418 502.089C145.154 501.265 146.164 500.853 147.448 500.853C148.572 500.853 149.471 501.174 150.146 501.815C150.827 502.452 151.173 503.301 151.184 504.364H148.934C148.923 503.899 148.779 503.523 148.502 503.235C148.226 502.942 147.861 502.795 147.407 502.795C146.848 502.795 146.424 503 146.137 503.409C145.854 503.813 145.713 504.472 145.713 505.385V505.634C145.713 506.558 145.854 507.222 146.137 507.626C146.419 508.03 146.848 508.232 147.423 508.232ZM154.894 501.998C155.53 501.234 156.33 500.853 157.293 500.853C159.241 500.853 160.229 501.984 160.256 504.248V510H157.857V504.314C157.857 503.799 157.747 503.42 157.525 503.177C157.304 502.928 156.936 502.803 156.421 502.803C155.719 502.803 155.209 503.074 154.894 503.617V510H152.495V497.25H154.894V501.998ZM164.598 510H162.19V497.25H164.598V510ZM171.96 509.087C171.368 509.806 170.549 510.166 169.503 510.166C168.541 510.166 167.805 509.889 167.295 509.336C166.792 508.783 166.535 507.972 166.523 506.904V501.019H168.922V506.821C168.922 507.756 169.348 508.224 170.201 508.224C171.014 508.224 171.573 507.941 171.877 507.377V501.019H174.285V510H172.027L171.96 509.087ZM180.958 507.518C180.958 507.225 180.812 506.995 180.519 506.829C180.231 506.658 179.766 506.505 179.124 506.373C176.988 505.924 175.92 505.017 175.92 503.65C175.92 502.853 176.249 502.189 176.908 501.658C177.572 501.121 178.438 500.853 179.506 500.853C180.646 500.853 181.556 501.121 182.237 501.658C182.923 502.194 183.266 502.892 183.266 503.75H180.867C180.867 503.406 180.757 503.124 180.535 502.903C180.314 502.676 179.968 502.562 179.498 502.562C179.094 502.562 178.781 502.654 178.56 502.836C178.338 503.019 178.228 503.251 178.228 503.534C178.228 503.799 178.352 504.015 178.601 504.181C178.856 504.342 179.282 504.483 179.879 504.604C180.477 504.721 180.981 504.854 181.39 505.003C182.657 505.468 183.291 506.273 183.291 507.418C183.291 508.237 182.94 508.902 182.237 509.411C181.534 509.914 180.626 510.166 179.514 510.166C178.762 510.166 178.092 510.033 177.505 509.768C176.924 509.496 176.468 509.128 176.136 508.664C175.804 508.193 175.638 507.687 175.638 507.145H177.912C177.934 507.571 178.092 507.897 178.385 508.124C178.679 508.351 179.071 508.464 179.564 508.464C180.023 508.464 180.369 508.379 180.602 508.207C180.84 508.03 180.958 507.8 180.958 507.518ZM189.708 507.518C189.708 507.225 189.561 506.995 189.268 506.829C188.98 506.658 188.515 506.505 187.873 506.373C185.737 505.924 184.669 505.017 184.669 503.65C184.669 502.853 184.998 502.189 185.657 501.658C186.321 501.121 187.187 500.853 188.255 500.853C189.395 500.853 190.305 501.121 190.986 501.658C191.672 502.194 192.015 502.892 192.015 503.75H189.616C189.616 503.406 189.506 503.124 189.284 502.903C189.063 502.676 188.717 502.562 188.247 502.562C187.843 502.562 187.53 502.654 187.309 502.836C187.087 503.019 186.977 503.251 186.977 503.534C186.977 503.799 187.101 504.015 187.35 504.181C187.605 504.342 188.031 504.483 188.628 504.604C189.226 504.721 189.73 504.854 190.139 505.003C191.406 505.468 192.04 506.273 192.04 507.418C192.04 508.237 191.689 508.902 190.986 509.411C190.283 509.914 189.375 510.166 188.263 510.166C187.511 510.166 186.841 510.033 186.254 509.768C185.673 509.496 185.217 509.128 184.885 508.664C184.553 508.193 184.387 507.687 184.387 507.145H186.661C186.683 507.571 186.841 507.897 187.134 508.124C187.428 508.351 187.82 508.464 188.313 508.464C188.772 508.464 189.118 508.379 189.351 508.207C189.589 508.03 189.708 507.8 189.708 507.518Z" fill="white" />
            </g>
        </g>
      </g>
  </g>
</svg>